<?xml version="1.0" standalone="no"?>
<!DOCTYPE svg PUBLIC "-//W3C//DTD SVG 20010904//EN"
 "http://www.w3.org/TR/2001/REC-SVG-20010904/DTD/svg10.dtd">
<svg version="1.0" xmlns="http://www.w3.org/2000/svg"
 width="700.000000pt" height="700.000000pt" viewBox="0 0 700.000000 700.000000"
 preserveAspectRatio="xMidYMid meet">
<metadata>
Created by potrace 1.11, written by Peter Selinger 2001-2013
</metadata>
<g transform="translate(0.000000,700.000000) scale(0.100000,-0.100000)"
fill="#000000" stroke="none">
<path d="M2840 6450 l0 -110 -325 0 -325 0 0 -110 0 -110 -110 0 -110 0 0
-105 0 -104 -107 -3 -108 -3 -3 -107 -3 -107 -107 -3 -107 -3 -3 -107 -3 -107
-107 -3 -107 -3 -3 -107 -3 -107 -107 -3 -107 -3 -3 -107 -3 -108 -104 0 -105
0 0 -325 0 -325 -110 0 -110 0 0 -770 0 -770 110 0 110 0 0 -330 0 -330 105 0
104 0 3 -107 3 -108 107 -3 107 -3 3 -107 3 -107 108 -3 107 -3 0 -104 0 -105
110 0 110 0 0 -110 0 -110 110 0 110 0 0 -110 0 -110 110 0 110 0 0 -110 0
-110 325 0 325 0 0 -105 0 -105 770 0 770 0 0 105 0 105 330 0 330 0 0 110 0
110 110 0 110 0 0 110 0 110 105 0 105 0 0 110 0 110 110 0 110 0 0 105 0 105
110 0 110 0 0 110 0 110 110 0 110 0 0 110 0 109 108 3 107 3 3 328 2 327 105
0 105 0 0 770 0 770 -105 0 -105 0 0 325 0 325 -110 0 -110 0 0 110 0 110
-110 0 -110 0 0 110 0 110 -110 0 -110 0 0 110 0 110 -110 0 -110 0 0 110 0
110 -105 0 -105 0 0 105 0 105 -110 0 -110 0 0 110 0 110 -330 0 -330 0 0 110
0 110 -770 0 -770 0 0 -110z m1540 -220 l0 -110 325 0 324 0 3 -107 3 -108
107 -3 107 -3 3 -107 3 -107 108 -3 107 -3 0 -109 0 -110 110 0 110 0 0 -110
0 -110 110 0 110 0 0 -105 0 -105 110 0 110 0 0 -330 0 -330 105 0 105 0 0
-765 0 -765 -105 0 -105 0 0 -325 0 -325 -110 0 -110 0 0 -110 0 -110 -110 0
-110 0 0 -110 0 -110 -110 0 -110 0 0 -110 0 -110 -110 0 -110 0 0 -110 0
-110 -110 0 -110 0 0 -110 0 -110 -325 0 -325 0 0 -110 0 -110 -765 0 -765 0
0 110 0 110 -330 0 -330 0 0 110 0 110 -110 0 -110 0 0 110 0 110 -105 0 -104
0 -3 108 -3 107 -107 3 -107 3 -3 107 -3 107 -107 3 -107 3 -3 107 -3 107
-107 3 -108 3 0 324 0 325 -110 0 -110 0 0 765 0 764 108 3 107 3 3 328 2 327
110 0 110 0 0 105 0 104 108 3 107 3 3 107 3 107 107 3 107 3 3 108 3 107 104
0 105 0 0 110 0 110 110 0 110 0 0 110 0 110 330 0 330 0 0 110 0 110 765 0
765 0 0 -110z"/>
<path d="M2847 5903 c-4 -3 -7 -53 -7 -110 l0 -103 -215 0 -215 0 0 -110 0
-110 -110 0 -110 0 0 -110 0 -110 -110 0 -110 0 0 -110 0 -110 -110 0 -110 0
0 -110 0 -110 -110 0 -110 0 0 -215 0 -214 -107 -3 -108 -3 -3 -767 -2 -768
110 0 110 0 2 -217 3 -218 107 -3 107 -3 3 -107 3 -107 108 -3 107 -3 0 -109
0 -110 110 0 110 0 0 -110 0 -110 110 0 110 0 0 -105 0 -105 215 0 215 0 0
-110 0 -110 770 0 770 0 0 110 0 110 220 0 220 0 0 105 0 104 108 3 107 3 3
107 3 107 107 3 107 3 3 108 3 107 104 0 105 0 0 110 0 110 110 0 110 0 0 220
0 220 110 0 110 0 0 770 0 770 -110 0 -110 0 0 215 0 215 -110 0 -110 0 0 110
0 110 -105 0 -104 0 -3 108 -3 107 -107 3 -107 3 -3 107 -3 107 -107 3 -107 3
-3 107 -3 107 -217 3 -218 2 0 110 0 110 -763 0 c-420 0 -767 -3 -770 -7z
m1533 -333 l0 -110 215 0 215 0 0 -110 0 -110 110 0 110 0 0 -105 0 -105 110
0 110 0 0 -110 0 -110 110 0 110 0 0 -220 0 -220 110 0 110 0 0 -765 0 -765
-110 0 -110 0 0 -215 0 -215 -110 0 -110 0 0 -110 0 -110 -110 0 -110 0 0
-110 0 -110 -110 0 -110 0 0 -110 0 -110 -215 0 -215 0 0 -110 0 -110 -765 0
-765 0 0 110 0 110 -220 0 -220 0 0 110 0 110 -110 0 -110 0 0 110 0 110 -110
0 -110 0 0 110 0 110 -105 0 -105 0 0 215 0 215 -110 0 -110 0 0 765 0 765
110 0 110 0 0 220 0 220 105 0 105 0 0 110 0 110 110 0 110 0 0 105 0 105 110
0 110 0 0 110 0 110 220 0 220 0 0 110 0 110 765 0 765 0 0 -110z"/>
<path d="M3070 4485 l0 -105 545 0 545 0 0 105 0 105 -545 0 -545 0 0 -105z"/>
<path d="M2850 4265 l0 -105 105 0 105 0 0 105 0 105 -105 0 -105 0 0 -105z"/>
<path d="M4160 4265 l0 -105 110 0 110 0 0 105 0 105 -110 0 -110 0 0 -105z"/>
<path d="M2630 4045 l0 -105 105 0 105 0 0 105 0 105 -105 0 -105 0 0 -105z"/>
<path d="M4380 4045 l0 -105 105 0 105 0 0 105 0 105 -105 0 -105 0 0 -105z"/>
<path d="M2410 3385 l0 -545 110 0 110 0 0 -110 0 -110 105 0 105 0 0 110 0
110 -105 0 -105 0 0 545 0 545 -110 0 -110 0 0 -545z"/>
<path d="M4600 3385 l0 -545 -110 0 -110 0 0 -110 0 -110 -110 0 -110 0 0
-105 0 -105 110 0 110 0 0 105 0 105 110 0 110 0 0 -215 0 -215 105 0 105 0 0
870 0 870 -105 0 -105 0 0 -545z"/>
<path d="M2850 2515 l0 -105 105 0 105 0 0 105 0 105 -105 0 -105 0 0 -105z"/>
<path d="M3070 2295 l0 -105 545 0 545 0 0 105 0 105 -545 0 -545 0 0 -105z"/>
</g>
</svg>
