<?xml version="1.0" encoding="UTF-8" standalone="no"?>
<!-- Generator: Adobe Illustrator 17.0.2, SVG Export Plug-In . SVG Version: 6.00 Build 0)  -->
<!DOCTYPE svg  PUBLIC '-//W3C//DTD SVG 1.1//EN'  'http://www.w3.org/Graphics/SVG/1.1/DTD/svg11.dtd'>
<svg xmlns="http://www.w3.org/2000/svg" xml:space="preserve" height="25px" width="107px" version="1.1" y="0px" x="0px" xmlns:xlink="http://www.w3.org/1999/xlink" viewBox="0 0 107 25" enable-background="new 0 0 107 25">
<g id="Comp">
	<circle cy="7.374" cx="100.6" r="6.403" fill="#fff"/>
	<path d="m96.6 6.605c-0.424 0-0.768 0.344-0.768 0.77 0 0.423 0.344 0.768 0.768 0.768 0.425 0 0.772-0.345 0.772-0.768-0.001-0.426-0.347-0.77-0.772-0.77zm5.49 3.498c-0.365 0.211-0.492 0.682-0.282 1.047 0.214 0.372 0.685 0.497 1.051 0.284 0.369-0.21 0.496-0.682 0.281-1.05-0.21-0.37-0.68-0.495-1.05-0.281zm-3.818-2.728c0-0.76 0.378-1.434 0.956-1.839l-0.562-0.944c-0.675 0.451-1.176 1.138-1.384 1.943 0.246 0.2 0.398 0.501 0.398 0.84 0 0.337-0.152 0.639-0.398 0.838 0.208 0.805 0.709 1.492 1.384 1.941l0.562-0.941c-0.578-0.406-0.956-1.079-0.956-1.838zm2.248-2.25c1.177 0 2.14 0.902 2.24 2.052l1.098-0.019c-0.055-0.846-0.425-1.61-0.994-2.166-0.295 0.108-0.634 0.093-0.925-0.078-0.292-0.168-0.473-0.452-0.524-0.761-0.285-0.077-0.584-0.12-0.895-0.12-0.53 0-1.032 0.125-1.48 0.345l0.535 0.958c0.285-0.135 0.605-0.211 0.945-0.211zm0 4.497c-0.336 0-0.658-0.076-0.945-0.21l-0.535 0.958c0.447 0.221 0.95 0.344 1.48 0.344 0.312 0 0.61-0.039 0.895-0.119 0.051-0.311 0.232-0.596 0.524-0.763 0.294-0.168 0.63-0.186 0.925-0.073 0.569-0.562 0.938-1.323 0.994-2.17l-1.098-0.015c-0.09 1.147-1.05 2.048-2.23 2.048zm1.57-4.976c0.368 0.213 0.838 0.088 1.051-0.282 0.214-0.367 0.087-0.839-0.281-1.052-0.366-0.211-0.837-0.085-1.051 0.283-0.21 0.367-0.08 0.838 0.28 1.051z" fill="#DD4814"/>
	<path d="m12.807 24.177c-0.649 0.162-1.509 0.337-2.577 0.518-1.068 0.184-2.304 0.276-3.704 0.276-1.222 0-2.247-0.179-3.082-0.535-0.833-0.355-1.503-0.858-2.01-1.509-0.509-0.65-0.875-1.419-1.098-2.302-0.226-0.886-0.336-1.865-0.336-2.945v-8.902h2.835v8.293c0 1.932 0.304 3.315 0.916 4.147 0.61 0.834 1.636 1.249 3.079 1.249 0.304 0 0.62-0.01 0.945-0.031 0.326-0.02 0.632-0.045 0.914-0.075 0.285-0.031 0.545-0.061 0.779-0.091 0.234-0.032 0.401-0.065 0.504-0.108v-13.384h2.835v15.399z" fill="#fff"/>
	<path d="m19.728 9.478c0.347-0.222 0.871-0.458 1.572-0.7 0.7-0.243 1.507-0.367 2.424-0.367 1.137 0 2.148 0.205 3.033 0.609 0.886 0.406 1.632 0.977 2.243 1.709 0.607 0.731 1.069 1.605 1.385 2.622 0.317 1.016 0.474 2.135 0.474 3.355 0 1.279-0.187 2.433-0.565 3.461-0.377 1.025-0.909 1.894-1.6 2.605-0.692 0.714-1.524 1.26-2.502 1.647-0.973 0.388-2.071 0.581-3.293 0.581-1.321 0-2.49-0.093-3.506-0.276s-1.849-0.367-2.501-0.549v-22.715l2.837-0.488v8.506h-0.001zm0 12.684c0.285 0.084 0.686 0.159 1.206 0.23 0.517 0.073 1.161 0.107 1.935 0.107 1.523 0 2.746-0.504 3.659-1.509 0.915-1.007 1.373-2.435 1.373-4.284 0-0.813-0.081-1.575-0.245-2.288-0.163-0.712-0.428-1.326-0.793-1.845-0.366-0.519-0.839-0.923-1.416-1.219-0.582-0.297-1.278-0.444-2.09-0.444-0.774 0-1.484 0.133-2.135 0.395-0.651 0.267-1.149 0.541-1.495 0.825v10.032h0.001z" fill="#fff"/>
	<path d="m46.684 24.177c-0.651 0.162-1.509 0.337-2.576 0.518-1.067 0.184-2.303 0.276-3.707 0.276-1.219 0-2.246-0.179-3.079-0.535-0.833-0.355-1.504-0.858-2.011-1.509-0.511-0.65-0.875-1.419-1.098-2.302-0.224-0.886-0.335-1.865-0.335-2.944v-8.903h2.835v8.293c0 1.932 0.304 3.315 0.914 4.147 0.611 0.834 1.636 1.249 3.08 1.249 0.305 0 0.622-0.01 0.947-0.031 0.325-0.02 0.629-0.045 0.915-0.075 0.284-0.032 0.544-0.062 0.779-0.092 0.232-0.032 0.4-0.065 0.503-0.108v-13.383h2.835v15.399h-0.002z" fill="#fff"/>
	<path d="m50.769 9.236c0.651-0.164 1.514-0.335 2.593-0.521 1.077-0.18 2.316-0.272 3.719-0.272 1.263 0 2.308 0.178 3.142 0.533 0.834 0.356 1.499 0.853 1.997 1.494 0.498 0.64 0.849 1.408 1.053 2.3 0.202 0.898 0.304 1.882 0.304 2.959v8.905h-2.836v-8.294c0-0.977-0.067-1.809-0.198-2.501-0.132-0.693-0.351-1.249-0.656-1.676-0.303-0.429-0.712-0.738-1.221-0.93-0.506-0.197-1.139-0.292-1.888-0.292-0.306 0-0.622 0.012-0.944 0.032-0.326 0.021-0.637 0.046-0.931 0.076-0.298 0.03-0.56 0.067-0.794 0.107-0.235 0.041-0.402 0.072-0.503 0.091v13.386h-2.837v-15.397z" fill="#fff"/>
	<path d="m70.132 8.778h6.008v2.378h-6.008v7.319c0 0.792 0.062 1.45 0.185 1.966 0.121 0.52 0.304 0.927 0.548 1.221 0.244 0.292 0.549 0.501 0.914 0.625 0.367 0.122 0.794 0.182 1.28 0.182 0.874 0 1.565-0.096 2.076-0.29 0.507-0.193 0.853-0.329 1.035-0.412l0.609 2.32c-0.283 0.142-0.787 0.324-1.508 0.547-0.722 0.225-1.539 0.338-2.454 0.338-1.078 0-1.968-0.137-2.669-0.413-0.701-0.275-1.265-0.685-1.692-1.234-0.427-0.548-0.727-1.224-0.898-2.027-0.175-0.805-0.26-1.734-0.26-2.79v-14.152l2.833-0.489v4.911h0.001z" fill="#fff"/>
	<path d="m91.57 24.177c-0.653 0.162-1.51 0.337-2.579 0.518-1.067 0.184-2.3 0.276-3.701 0.276-1.222 0-2.247-0.179-3.081-0.535-0.836-0.355-1.506-0.858-2.013-1.509-0.509-0.65-0.873-1.419-1.1-2.302-0.221-0.886-0.335-1.865-0.335-2.944v-8.903h2.838v8.293c0 1.932 0.305 3.315 0.914 4.147 0.609 0.834 1.637 1.249 3.081 1.249 0.304 0 0.618-0.01 0.945-0.031 0.323-0.02 0.629-0.045 0.914-0.075 0.284-0.032 0.546-0.062 0.777-0.092 0.234-0.032 0.403-0.065 0.505-0.108v-13.383h2.837v15.399h-0.002z" fill="#fff"/>
</g>
</svg>
